<?xml version="1.0" encoding="UTF-8" standalone="no"?>
<!-- Created with Inkscape (http://www.inkscape.org/) -->

<svg
   xmlns:dc="http://purl.org/dc/elements/1.1/"
   xmlns:cc="http://creativecommons.org/ns#"
   xmlns:rdf="http://www.w3.org/1999/02/22-rdf-syntax-ns#"
   xmlns:svg="http://www.w3.org/2000/svg"
   xmlns="http://www.w3.org/2000/svg"
   xmlns:sodipodi="http://sodipodi.sourceforge.net/DTD/sodipodi-0.dtd"
   xmlns:inkscape="http://www.inkscape.org/namespaces/inkscape"
   width="200px"
   height="200px"
   viewBox="0 0 200 200"
   version="1.1"
   id="SVGRoot"
   inkscape:version="0.92.2 (5c3e80d, 2017-08-06)"
   sodipodi:docname="bottom_close.svg">
  <sodipodi:namedview
     id="base"
     pagecolor="#ffffff"
     bordercolor="#666666"
     borderopacity="1.0"
     inkscape:pageopacity="0.0"
     inkscape:pageshadow="2"
     inkscape:zoom="2.56"
     inkscape:cx="100"
     inkscape:cy="100"
     inkscape:document-units="px"
     inkscape:current-layer="layer1"
     showgrid="true"
     inkscape:window-width="1920"
     inkscape:window-height="1005"
     inkscape:window-x="-9"
     inkscape:window-y="-9"
     inkscape:window-maximized="1">
    <inkscape:grid
       type="xygrid"
       id="grid10060" />
  </sodipodi:namedview>
  <defs
     id="defs10028" />
  <metadata
     id="metadata10031">
    <rdf:RDF>
      <cc:Work
         rdf:about="">
        <dc:format>image/svg+xml</dc:format>
        <dc:type
           rdf:resource="http://purl.org/dc/dcmitype/StillImage" />
        <dc:title></dc:title>
      </cc:Work>
    </rdf:RDF>
  </metadata>
  <g
     id="layer1"
     inkscape:groupmode="layer"
     inkscape:label="Layer 1">
    <path
       inkscape:connector-curvature="0"
       style="fill:#8a8a8a;fill-opacity:1;stroke-width:1.23117399"
       d="m 100,40 a 60,60 0 0 0 -60,60 60,60 0 0 0 60,60 60,60 0 0 0 60,-60 60,60 0 0 0 -60,-60 z m 0,8.571429 A 51.428571,51.428571 0 0 1 151.42857,100 51.428571,51.428571 0 0 1 100,151.42857 51.428571,51.428571 0 0 1 48.571429,100 51.428571,51.428571 0 0 1 100,48.571429 Z"
       id="path6297" />
    <circle
       style="fill:#8a8a8a;fill-opacity:1;stroke-width:2"
       id="path6847"
       cx="100"
       cy="100"
       r="20" />
    <rect
       style="fill:#8a8a8a;fill-opacity:1"
       id="rect6849-6-9"
       width="10"
       height="10"
       x="170"
       y="95" />
    <rect
       style="fill:#8a8a8a;fill-opacity:1"
       id="rect6849-6-2"
       width="10"
       height="10"
       x="190"
       y="95" />
    <rect
       style="fill:#8a8a8a;fill-opacity:1"
       id="rect6849-4"
       width="10"
       height="10"
       x="95"
       y="0" />
    <rect
       style="fill:#8a8a8a;fill-opacity:1"
       id="rect6849-6-4"
       width="10"
       height="10"
       x="95"
       y="20" />
  </g>
</svg>
