<?xml version="1.0" encoding="UTF-8" standalone="no"?>
<!-- Created with Inkscape (http://www.inkscape.org/) -->

<svg
   xmlns:dc="http://purl.org/dc/elements/1.1/"
   xmlns:cc="http://creativecommons.org/ns#"
   xmlns:rdf="http://www.w3.org/1999/02/22-rdf-syntax-ns#"
   xmlns:svg="http://www.w3.org/2000/svg"
   xmlns="http://www.w3.org/2000/svg"
   xmlns:sodipodi="http://sodipodi.sourceforge.net/DTD/sodipodi-0.dtd"
   xmlns:inkscape="http://www.inkscape.org/namespaces/inkscape"
   width="200px"
   height="200px"
   viewBox="0 0 200 200"
   version="1.1"
   id="SVGRoot"
   inkscape:version="0.92.2 (5c3e80d, 2017-08-06)"
   sodipodi:docname="edit.svg">
  <sodipodi:namedview
     id="base"
     pagecolor="#ffffff"
     bordercolor="#666666"
     borderopacity="1.0"
     inkscape:pageopacity="0.0"
     inkscape:pageshadow="2"
     inkscape:zoom="1.28"
     inkscape:cx="148.92591"
     inkscape:cy="19.466022"
     inkscape:document-units="px"
     inkscape:current-layer="layer1"
     showgrid="true"
     inkscape:window-width="1920"
     inkscape:window-height="1018"
     inkscape:window-x="-8"
     inkscape:window-y="-8"
     inkscape:window-maximized="1">
    <inkscape:grid
       type="xygrid"
       id="grid11962" />
  </sodipodi:namedview>
  <defs
     id="defs11403" />
  <metadata
     id="metadata11406">
    <rdf:RDF>
      <cc:Work
         rdf:about="">
        <dc:format>image/svg+xml</dc:format>
        <dc:type
           rdf:resource="http://purl.org/dc/dcmitype/StillImage" />
        <dc:title />
      </cc:Work>
    </rdf:RDF>
  </metadata>
  <g
     id="layer1"
     inkscape:groupmode="layer"
     inkscape:label="Layer 1">
    <g
       id="g4625"
       transform="translate(319.99937,-20)">
      <path
         id="path4509"
         d="M -218.83203,40.007812 A 80,80 0 0 0 -276.56836,63.431641 80,80 0 0 0 -289.28125,160 l 8.66016,-5 A 70,70 0 0 1 -269.49805,70.501953 70,70 0 0 1 -185,59.378906 70,70 0 0 1 -152.38477,138.11719 70,70 0 0 1 -220,190 v 10 A 80,80 0 0 0 -142.72656,140.70508 80,80 0 0 0 -180,50.71875 80,80 0 0 0 -218.83203,40.007812 Z"
         style="fill:#8a8a8a;fill-opacity:1;stroke-width:1.06725967"
         inkscape:connector-curvature="0" />
      <g
         style="fill:#8a8a8a;fill-opacity:1"
         transform="rotate(30,-225,130)"
         id="g4618">
        <path
           sodipodi:type="star"
           style="fill:#8a8a8a;fill-opacity:1"
           id="path4527"
           sodipodi:sides="3"
           sodipodi:cx="-95"
           sodipodi:cy="250"
           sodipodi:r1="35"
           sodipodi:r2="17.5"
           sodipodi:arg1="1.5707963"
           sodipodi:arg2="2.6179939"
           inkscape:flatsided="true"
           inkscape:rounded="0.05"
           inkscape:randomized="0"
           d="m -94.999999,285 c -3.031089,0 -31.826431,-49.875 -30.310891,-52.5 1.51554,-2.625 59.106234,-2.625 60.621779,0 1.515544,2.625 -27.279799,52.5 -30.310888,52.5 z"
           inkscape:transform-center-y="5.7028126"
           transform="matrix(0.65857431,0,0,0.73436604,-162.43544,-9.294321)" />
        <rect
           style="fill:#8a8a8a;fill-opacity:1;stroke-width:0.85280281"
           id="rect4529"
           width="40"
           height="65"
           x="-245"
           y="90" />
        <rect
           style="fill:#8a8a8a;fill-opacity:1;stroke-width:0.77248055"
           id="rect4531"
           width="40"
           height="31.328125"
           x="-245"
           y="60" />
      </g>
    </g>
  </g>
</svg>
