<?xml version="1.0" encoding="UTF-8" standalone="no"?>
<!-- Created with Inkscape (http://www.inkscape.org/) -->

<svg
   xmlns:dc="http://purl.org/dc/elements/1.1/"
   xmlns:cc="http://creativecommons.org/ns#"
   xmlns:rdf="http://www.w3.org/1999/02/22-rdf-syntax-ns#"
   xmlns:svg="http://www.w3.org/2000/svg"
   xmlns="http://www.w3.org/2000/svg"
   xmlns:sodipodi="http://sodipodi.sourceforge.net/DTD/sodipodi-0.dtd"
   xmlns:inkscape="http://www.inkscape.org/namespaces/inkscape"
   width="200px"
   height="200px"
   viewBox="0 0 200 200"
   version="1.1"
   id="SVGRoot"
   inkscape:version="0.92.2 (5c3e80d, 2017-08-06)"
   sodipodi:docname="radio_false_part.svg">
  <sodipodi:namedview
     id="base"
     pagecolor="#ffffff"
     bordercolor="#666666"
     borderopacity="1.0"
     inkscape:pageopacity="0.0"
     inkscape:pageshadow="2"
     inkscape:zoom="2.56"
     inkscape:cx="90.820312"
     inkscape:cy="100"
     inkscape:document-units="px"
     inkscape:current-layer="layer1"
     showgrid="true"
     inkscape:window-width="1920"
     inkscape:window-height="1005"
     inkscape:window-x="-9"
     inkscape:window-y="-9"
     inkscape:window-maximized="1">
    <inkscape:grid
       type="xygrid"
       id="grid3660" />
  </sodipodi:namedview>
  <defs
     id="defs3101" />
  <metadata
     id="metadata3104">
    <rdf:RDF>
      <cc:Work
         rdf:about="">
        <dc:format>image/svg+xml</dc:format>
        <dc:type
           rdf:resource="http://purl.org/dc/dcmitype/StillImage" />
        <dc:title></dc:title>
      </cc:Work>
    </rdf:RDF>
  </metadata>
  <g
     id="layer1"
     inkscape:groupmode="layer"
     inkscape:label="Layer 1">
    <path
       style="fill:#8a8a8a;fill-opacity:1;stroke-width:1.66410065"
       d="M 100 40 A 60 60 0 0 0 80.007812 43.505859 A 60 60 0 0 1 100 40 z M 102.92383 40.103516 A 60 60 0 0 1 106.99805 40.484375 A 60 60 0 0 0 102.92383 40.103516 z M 108.88867 40.714844 A 60 60 0 0 1 113.62695 41.642578 A 60 60 0 0 0 108.88867 40.714844 z M 114.48828 41.835938 A 60 60 0 0 1 119.97656 43.490234 A 60 60 0 0 0 114.48828 41.835938 z M 120 43.498047 L 120 54.203125 A 50 50 0 0 1 145.75977 80 L 156.49219 80 A 60 60 0 0 0 120 43.498047 z M 80 43.507812 A 60 60 0 0 0 43.498047 80 L 54.203125 80 A 50 50 0 0 1 80 54.240234 L 80 43.507812 z M 100 50 A 50 50 0 0 0 98.898438 50.039062 A 50 50 0 0 1 100 50 z M 95.203125 50.277344 A 50 50 0 0 0 93.445312 50.490234 A 50 50 0 0 1 95.203125 50.277344 z M 90 51.064453 A 50 50 0 0 0 88.857422 51.320312 A 50 50 0 0 1 90 51.064453 z M 84.916016 52.390625 A 50 50 0 0 0 84.365234 52.572266 A 50 50 0 0 1 84.916016 52.390625 z M 156.49414 80.007812 A 60 60 0 0 1 160 100 A 60 60 0 0 0 156.49414 80.007812 z M 43.490234 80.023438 A 60 60 0 0 0 41.835938 85.511719 A 60 60 0 0 1 43.490234 80.023438 z M 147.42773 84.365234 A 50 50 0 0 1 147.60938 84.916016 A 50 50 0 0 0 147.42773 84.365234 z M 41.642578 86.373047 A 60 60 0 0 0 40.714844 91.111328 A 60 60 0 0 1 41.642578 86.373047 z M 148.67969 88.857422 A 50 50 0 0 1 148.93555 90 A 50 50 0 0 0 148.67969 88.857422 z M 40.484375 93.001953 A 60 60 0 0 0 40.103516 97.076172 A 60 60 0 0 1 40.484375 93.001953 z M 149.50977 93.445312 A 50 50 0 0 1 149.72266 95.203125 A 50 50 0 0 0 149.50977 93.445312 z M 149.96094 98.898438 A 50 50 0 0 1 150 100 A 50 50 0 0 0 149.96094 98.898438 z M 40 100 A 60 60 0 0 0 43.505859 119.99219 A 60 60 0 0 1 40 100 z M 50 100 A 50 50 0 0 0 50.039062 101.10156 A 50 50 0 0 1 50 100 z M 159.89648 102.92383 A 60 60 0 0 1 159.51562 106.99805 A 60 60 0 0 0 159.89648 102.92383 z M 50.277344 104.79688 A 50 50 0 0 0 50.490234 106.55469 A 50 50 0 0 1 50.277344 104.79688 z M 159.28516 108.88867 A 60 60 0 0 1 158.35742 113.62695 A 60 60 0 0 0 159.28516 108.88867 z M 51.064453 110 A 50 50 0 0 0 51.320312 111.14258 A 50 50 0 0 1 51.064453 110 z M 158.16406 114.48828 A 60 60 0 0 1 156.50977 119.97656 A 60 60 0 0 0 158.16406 114.48828 z M 52.390625 115.08398 A 50 50 0 0 0 52.572266 115.63477 A 50 50 0 0 1 52.390625 115.08398 z M 43.507812 120 A 60 60 0 0 0 80 156.50195 L 80 145.79688 A 50 50 0 0 1 54.240234 120 L 43.507812 120 z M 145.79688 120 A 50 50 0 0 1 120 145.75977 L 120 156.49219 A 60 60 0 0 0 156.50195 120 L 145.79688 120 z M 115.63477 147.42773 A 50 50 0 0 1 115.08398 147.60938 A 50 50 0 0 0 115.63477 147.42773 z M 111.14258 148.67969 A 50 50 0 0 1 110 148.93555 A 50 50 0 0 0 111.14258 148.67969 z M 106.55469 149.50977 A 50 50 0 0 1 104.79688 149.72266 A 50 50 0 0 0 106.55469 149.50977 z M 101.10156 149.96094 A 50 50 0 0 1 100 150 A 50 50 0 0 0 101.10156 149.96094 z M 119.99219 156.49414 A 60 60 0 0 1 100 160 A 60 60 0 0 0 119.99219 156.49414 z M 80.023438 156.50977 A 60 60 0 0 0 85.511719 158.16406 A 60 60 0 0 1 80.023438 156.50977 z M 86.373047 158.35742 A 60 60 0 0 0 91.111328 159.28516 A 60 60 0 0 1 86.373047 158.35742 z M 93.001953 159.51562 A 60 60 0 0 0 97.076172 159.89648 A 60 60 0 0 1 93.001953 159.51562 z "
       id="path1386" />
  </g>
</svg>
