<?xml version="1.0" encoding="UTF-8" standalone="no"?>
<!-- Created with Inkscape (http://www.inkscape.org/) -->

<svg
   xmlns:dc="http://purl.org/dc/elements/1.1/"
   xmlns:cc="http://creativecommons.org/ns#"
   xmlns:rdf="http://www.w3.org/1999/02/22-rdf-syntax-ns#"
   xmlns:svg="http://www.w3.org/2000/svg"
   xmlns="http://www.w3.org/2000/svg"
   xmlns:sodipodi="http://sodipodi.sourceforge.net/DTD/sodipodi-0.dtd"
   xmlns:inkscape="http://www.inkscape.org/namespaces/inkscape"
   width="200px"
   height="200px"
   viewBox="0 0 200 200"
   version="1.1"
   id="SVGRoot"
   inkscape:version="0.92.2 (5c3e80d, 2017-08-06)"
   sodipodi:docname="radio_false_part_focus.svg">
  <sodipodi:namedview
     id="base"
     pagecolor="#ffffff"
     bordercolor="#666666"
     borderopacity="1.0"
     inkscape:pageopacity="0.0"
     inkscape:pageshadow="2"
     inkscape:zoom="2.56"
     inkscape:cx="100"
     inkscape:cy="100"
     inkscape:document-units="px"
     inkscape:current-layer="layer1"
     showgrid="true"
     inkscape:window-width="1920"
     inkscape:window-height="1005"
     inkscape:window-x="-9"
     inkscape:window-y="-9"
     inkscape:window-maximized="1">
    <inkscape:grid
       type="xygrid"
       id="grid4276" />
  </sodipodi:namedview>
  <defs
     id="defs3717" />
  <metadata
     id="metadata3720">
    <rdf:RDF>
      <cc:Work
         rdf:about="">
        <dc:format>image/svg+xml</dc:format>
        <dc:type
           rdf:resource="http://purl.org/dc/dcmitype/StillImage" />
        <dc:title></dc:title>
      </cc:Work>
    </rdf:RDF>
  </metadata>
  <g
     id="layer1"
     inkscape:groupmode="layer"
     inkscape:label="Layer 1">
    <path
       inkscape:connector-curvature="0"
       style="fill:#8a8a8a;fill-opacity:1;stroke-width:1.66410065"
       d="M 100,40 A 60,60 0 0 0 80.007812,43.505859 60,60 0 0 1 100,40 Z m 2.92383,0.103516 a 60,60 0 0 1 4.07422,0.380859 60,60 0 0 0 -4.07422,-0.380859 z m 5.96484,0.611328 a 60,60 0 0 1 4.73828,0.927734 60,60 0 0 0 -4.73828,-0.927734 z m 5.59961,1.121094 a 60,60 0 0 1 5.48828,1.654296 60,60 0 0 0 -5.48828,-1.654296 z M 120,43.498047 V 54.203125 A 50,50 0 0 1 145.75977,80 h 10.73242 A 60,60 0 0 0 120,43.498047 Z m -40,0.0098 A 60,60 0 0 0 43.498047,80 H 54.203125 A 50,50 0 0 1 80,54.240234 Z M 100,50 A 50,50 0 0 0 98.898438,50.039062 50,50 0 0 1 100,50 Z m -4.796875,0.277344 a 50,50 0 0 0 -1.757813,0.21289 50,50 0 0 1 1.757813,-0.21289 z M 90,51.064453 A 50,50 0 0 0 88.857422,51.320312 50,50 0 0 1 90,51.064453 Z m -5.083984,1.326172 a 50,50 0 0 0 -0.550782,0.181641 50,50 0 0 1 0.550782,-0.181641 z M 156.49414,80.007812 A 60,60 0 0 1 160,100 60,60 0 0 0 156.49414,80.007812 Z m -113.003906,0.01563 a 60,60 0 0 0 -1.654296,5.488281 60,60 0 0 1 1.654296,-5.488281 z m 103.937496,4.341796 a 50,50 0 0 1 0.18165,0.550782 50,50 0 0 0 -0.18165,-0.550782 z M 41.642578,86.373047 a 60,60 0 0 0 -0.927734,4.738281 60,60 0 0 1 0.927734,-4.738281 z M 148.67969,88.857422 A 50,50 0 0 1 148.93555,90 50,50 0 0 0 148.67969,88.857422 Z M 40.484375,93.001953 a 60,60 0 0 0 -0.380859,4.074219 60,60 0 0 1 0.380859,-4.074219 z m 109.025395,0.443359 a 50,50 0 0 1 0.21289,1.757813 50,50 0 0 0 -0.21289,-1.757813 z m 0.45117,5.453126 A 50,50 0 0 1 150,100 50,50 0 0 0 149.96094,98.898438 Z M 40,100 A 60,60 0 0 0 43.505859,119.99219 60,60 0 0 1 40,100 Z m 10,0 a 50,50 0 0 0 0.03906,1.10156 A 50,50 0 0 1 50,100 Z m 109.89648,2.92383 a 60,60 0 0 1 -0.38086,4.07422 60,60 0 0 0 0.38086,-4.07422 z m -109.619136,1.87305 a 50,50 0 0 0 0.21289,1.75781 50,50 0 0 1 -0.21289,-1.75781 z m 109.007816,4.09179 a 60,60 0 0 1 -0.92774,4.73828 60,60 0 0 0 0.92774,-4.73828 z M 51.064453,110 a 50,50 0 0 0 0.255859,1.14258 A 50,50 0 0 1 51.064453,110 Z m 107.099607,4.48828 a 60,60 0 0 1 -1.65429,5.48828 60,60 0 0 0 1.65429,-5.48828 z m -105.773435,0.5957 a 50,50 0 0 0 0.181641,0.55079 50,50 0 0 1 -0.181641,-0.55079 z M 43.507812,120 A 60,60 0 0 0 80,156.50195 V 145.79688 A 50,50 0 0 1 54.240234,120 Z m 102.289068,0 A 50,50 0 0 1 120,145.75977 v 10.73242 A 60,60 0 0 0 156.50195,120 Z m -30.16211,27.42773 a 50,50 0 0 1 -0.55079,0.18165 50,50 0 0 0 0.55079,-0.18165 z m -4.49219,1.25196 A 50,50 0 0 1 110,148.93555 a 50,50 0 0 0 1.14258,-0.25586 z m -4.58789,0.83008 a 50,50 0 0 1 -1.75781,0.21289 50,50 0 0 0 1.75781,-0.21289 z m -5.45313,0.45117 a 50,50 0 0 1 -1.10156,0.0391 50,50 0 0 0 1.10156,-0.0391 z m 18.89063,6.5332 A 60,60 0 0 1 100,160 a 60,60 0 0 0 19.99219,-3.50586 z m -39.968752,0.0156 a 60,60 0 0 0 5.488281,1.65429 60,60 0 0 1 -5.488281,-1.65429 z m 6.349609,1.84765 a 60,60 0 0 0 4.738281,0.92774 60,60 0 0 1 -4.738281,-0.92774 z m 6.628906,1.1582 a 60,60 0 0 0 4.074219,0.38086 60,60 0 0 1 -4.074219,-0.38086 z"
       id="path1386" />
    <path
       style="fill:#bfbfbf;fill-opacity:1;stroke-width:1.17647064"
       d="m 100,50 a 50,50 0 0 0 -50,50 50,50 0 0 0 50,50 50,50 0 0 0 50,-50 50,50 0 0 0 -50,-50 z m 0,5 a 45,45 0 0 1 45,45 45,45 0 0 1 -45,45 45,45 0 0 1 -45,-45 45,45 0 0 1 45,-45 z"
       id="path2532"
       inkscape:connector-curvature="0" />
  </g>
</svg>
