<?xml version="1.0" encoding="UTF-8" standalone="no"?>
<!-- Created with Inkscape (http://www.inkscape.org/) -->

<svg
   xmlns:dc="http://purl.org/dc/elements/1.1/"
   xmlns:cc="http://creativecommons.org/ns#"
   xmlns:rdf="http://www.w3.org/1999/02/22-rdf-syntax-ns#"
   xmlns:svg="http://www.w3.org/2000/svg"
   xmlns="http://www.w3.org/2000/svg"
   xmlns:sodipodi="http://sodipodi.sourceforge.net/DTD/sodipodi-0.dtd"
   xmlns:inkscape="http://www.inkscape.org/namespaces/inkscape"
   width="200px"
   height="200px"
   viewBox="0 0 200 200"
   version="1.1"
   id="SVGRoot"
   inkscape:version="0.92.2 (5c3e80d, 2017-08-06)"
   sodipodi:docname="remove.svg">
  <sodipodi:namedview
     id="base"
     pagecolor="#ffffff"
     bordercolor="#666666"
     borderopacity="1.0"
     inkscape:pageopacity="0.0"
     inkscape:pageshadow="2"
     inkscape:zoom="1.8101934"
     inkscape:cx="124.85609"
     inkscape:cy="100.17085"
     inkscape:document-units="px"
     inkscape:current-layer="layer1"
     showgrid="true"
     inkscape:window-width="1920"
     inkscape:window-height="1018"
     inkscape:window-x="-8"
     inkscape:window-y="-8"
     inkscape:window-maximized="1">
    <inkscape:grid
       type="xygrid"
       id="grid11401" />
  </sodipodi:namedview>
  <defs
     id="defs10842" />
  <metadata
     id="metadata10845">
    <rdf:RDF>
      <cc:Work
         rdf:about="">
        <dc:format>image/svg+xml</dc:format>
        <dc:type
           rdf:resource="http://purl.org/dc/dcmitype/StillImage" />
        <dc:title />
      </cc:Work>
    </rdf:RDF>
  </metadata>
  <g
     id="layer1"
     inkscape:groupmode="layer"
     inkscape:label="Layer 1">
    <path
       style="fill:#8a8a8a;fill-opacity:1;stroke-width:1.23076928"
       d="M 101.16734,20.007811 A 80,80 0 0 0 43.43101,43.43164 80,80 0 0 0 30.71812,140 l 8.66016,-5 A 70,70 0 0 1 50.50132,50.501952 70,70 0 0 1 134.99937,39.378905 70,70 0 0 1 167.6146,118.11719 70,70 0 0 1 99.99937,170 v 10 A 80,80 0 0 0 177.27281,120.70508 80,80 0 0 0 139.99937,30.718749 80,80 0 0 0 101.16734,20.007811 Z"
       id="path817"
       inkscape:connector-curvature="0" />
    <g
       transform="rotate(-45,100.00064,100.00057)"
       id="g892">
      <rect
         y="85"
         x="40.000183"
         height="30.000002"
         width="120.00109"
         id="rect11985"
         style="fill:#8a8a8a;fill-opacity:1;stroke-width:2.12133026" />
      <rect
         transform="rotate(90)"
         y="-115"
         x="40.00061"
         height="29.999998"
         width="119.99947"
         id="rect11985-5"
         style="fill:#8a8a8a;fill-opacity:1;stroke-width:2.12131572" />
    </g>
  </g>
</svg>
