<?xml version="1.0" encoding="UTF-8" standalone="no"?>
<!-- Created with Inkscape (http://www.inkscape.org/) -->

<svg
   xmlns:dc="http://purl.org/dc/elements/1.1/"
   xmlns:cc="http://creativecommons.org/ns#"
   xmlns:rdf="http://www.w3.org/1999/02/22-rdf-syntax-ns#"
   xmlns:svg="http://www.w3.org/2000/svg"
   xmlns="http://www.w3.org/2000/svg"
   xmlns:sodipodi="http://sodipodi.sourceforge.net/DTD/sodipodi-0.dtd"
   xmlns:inkscape="http://www.inkscape.org/namespaces/inkscape"
   width="200px"
   height="200px"
   viewBox="0 0 200 200"
   version="1.1"
   id="SVGRoot"
   inkscape:version="0.92.2 (5c3e80d, 2017-08-06)"
   sodipodi:docname="roots_close.svg">
  <sodipodi:namedview
     id="base"
     pagecolor="#ffffff"
     bordercolor="#666666"
     borderopacity="1.0"
     inkscape:pageopacity="0.0"
     inkscape:pageshadow="2"
     inkscape:zoom="3.6203867"
     inkscape:cx="26.281742"
     inkscape:cy="95.856335"
     inkscape:document-units="px"
     inkscape:current-layer="layer1"
     showgrid="true"
     inkscape:window-width="1920"
     inkscape:window-height="1018"
     inkscape:window-x="-8"
     inkscape:window-y="-8"
     inkscape:window-maximized="1">
    <inkscape:grid
       type="xygrid"
       id="grid6295" />
  </sodipodi:namedview>
  <defs
     id="defs6279" />
  <metadata
     id="metadata6282">
    <rdf:RDF>
      <cc:Work
         rdf:about="">
        <dc:format>image/svg+xml</dc:format>
        <dc:type
           rdf:resource="http://purl.org/dc/dcmitype/StillImage" />
        <dc:title />
      </cc:Work>
    </rdf:RDF>
  </metadata>
  <g
     id="layer1"
     inkscape:groupmode="layer"
     inkscape:label="Layer 1">
    <circle
       style="fill:#8a8a8a;fill-opacity:1;stroke-width:2"
       id="path6847"
       cx="100"
       cy="100"
       r="20" />
    <rect
       style="fill:#8a8a8a;fill-opacity:1"
       id="rect6849"
       width="10"
       height="10"
       x="95"
       y="170" />
    <rect
       style="fill:#8a8a8a;fill-opacity:1"
       id="rect6849-6"
       width="10"
       height="10"
       x="95"
       y="190" />
    <rect
       style="fill:#8a8a8a;fill-opacity:1"
       id="rect6849-6-9"
       width="10"
       height="10"
       x="170"
       y="95" />
    <rect
       style="fill:#8a8a8a;fill-opacity:1"
       id="rect6849-6-2"
       width="10"
       height="10"
       x="190"
       y="95" />
    <path
       style="fill:#8a8a8a;fill-opacity:1;stroke-width:1.090909"
       d="m 100,40 a 60,60 0 0 0 -60,60 60,60 0 0 0 60,60 60,60 0 0 0 60,-60 60,60 0 0 0 -60,-60 z m 0,10 a 50,50 0 0 1 50,50 50,50 0 0 1 -50,50 50,50 0 0 1 -50,-50 50,50 0 0 1 50,-50 z"
       id="path815"
       inkscape:connector-curvature="0" />
  </g>
</svg>
